<svg width="101" height="29" viewBox="0 0 101 29" fill="none" xmlns="http://www.w3.org/2000/svg">
<path fill-rule="evenodd" clip-rule="evenodd" d="M5.1975 0.189942C3.13983 1.0624 0.872903 3.5053 0.140512 6.54146C-0.766258 10.4152 3.00033 12.0554 3.31421 11.5319C3.66297 10.9038 2.65157 10.6944 2.40744 8.67027C2.16331 6.08778 3.38396 3.15631 4.88362 1.89997C5.16262 1.65568 5.16262 2.00466 5.16262 2.59794L5.09287 15.5453C5.09287 18.3022 4.98824 19.1747 4.77899 20.0472C4.56974 20.9196 4.25585 21.5129 4.49998 21.7572C4.77899 22.0015 5.99964 21.4082 6.69716 20.431C7.4993 19.2096 7.91781 17.7788 7.88293 16.3479C7.95269 14.4983 7.95268 11.5668 7.95268 9.92661C7.95268 8.39108 7.98756 3.92408 7.91781 1.2369C7.88293 0.504029 6.06939 -0.19394 5.1975 0.189942ZM78.611 13.1373C78.5761 14.2889 78.332 15.4406 77.8089 16.4875C77.0416 18.0231 75.4722 18.5116 74.7747 16.2781C74.4259 15.0916 74.391 13.0675 74.67 11.3923C74.949 9.68232 75.6814 8.39108 76.937 8.49577C78.1925 8.63537 78.7505 10.2058 78.611 13.1373ZM57.9297 22.0713C57.8948 24.4444 57.546 26.5383 56.7439 27.1664C55.593 28.0389 54.0585 27.3758 54.3723 25.6309C54.6513 24.0954 55.9766 22.525 57.9645 20.5706L57.9297 22.0713ZM57.6158 13.1024C57.5809 14.254 57.3019 15.4057 56.8136 16.4875C56.0464 18.0231 54.4421 18.5116 53.7794 16.2781C53.3261 14.7775 53.4307 12.8232 53.6748 11.5668C53.9538 9.96151 54.6862 8.49577 55.9417 8.49577C57.1624 8.53067 57.7902 9.85681 57.6158 13.1024ZM45.6185 13.1024C45.5836 14.2889 45.3395 15.4406 44.8513 16.4875C44.0491 18.0231 42.5146 18.4767 41.8171 16.2781C41.3288 14.7077 41.5032 12.5091 41.7124 11.3574C42.0263 9.61252 42.7936 8.39108 43.9794 8.49577C45.2 8.63537 45.7929 10.2058 45.6185 13.1024ZM100.548 14.7077C100.269 14.7077 100.094 15.0218 99.9899 15.5453C99.6062 17.36 99.1877 17.7788 98.6646 17.7788C98.0717 17.7788 97.5485 16.8714 97.409 15.0916C97.3044 13.6607 97.3044 11.0783 97.4788 8.49577C97.5137 7.9723 97.3393 7.44882 95.9443 6.92534C95.3514 6.71595 94.4446 6.36697 93.9912 7.44882C93.1193 9.50783 92.4916 11.6366 92.1428 13.8352C92.1428 13.905 92.073 13.905 92.0382 13.7654C91.9684 12.9977 91.794 11.5668 91.794 8.60047C91.794 8.0072 91.6545 7.51862 91.0268 7.13473C90.6083 6.85555 89.3527 6.40187 88.8645 6.96024C88.4808 7.41392 88.0275 8.63537 87.5392 10.0662L86.8766 12.0205V7.65821C86.8766 7.20453 86.5627 7.06494 86.458 7.03004C85.9349 6.85555 85.4118 6.75085 84.8538 6.71595C84.4353 6.71595 84.3306 6.96024 84.3306 7.30923C84.3306 7.34413 84.2609 11.4621 84.2609 14.3587V14.7426C84.0167 16.0687 83.2495 17.8486 82.3776 17.8486C81.5406 17.8486 81.1221 17.0808 81.1221 13.6607C81.1221 11.6715 81.1918 10.7991 81.2267 9.33334C81.2616 8.49577 81.2964 7.8676 81.2964 7.72801C81.2964 7.27433 80.5292 7.06494 80.1455 6.96024C79.7968 6.89045 79.4829 6.85555 79.2388 6.85555C78.89 6.89045 78.6459 7.09984 78.6459 7.41392V7.9025C78.2622 7.30923 77.6694 6.82065 77.0067 6.57636C75.7163 6.19248 74.391 6.54146 73.3796 7.9374C72.5077 9.19374 71.9846 10.6595 71.88 12.1601C71.7405 13.4863 71.7753 14.8473 72.0195 15.9989C71.7405 17.2902 71.1476 17.8137 70.5547 17.8137C69.6828 17.8137 69.0202 16.3479 69.0899 13.8701C69.1597 12.2299 69.4735 11.0783 69.8223 9.40313C69.9618 8.67027 69.8572 8.32128 69.5433 7.9723C69.2643 7.65821 68.6365 7.48372 67.7646 7.69311C67.1369 7.8327 66.2301 8.0072 65.428 8.11189C65.428 8.11189 65.4628 7.9374 65.5326 7.58841C65.7418 5.77369 63.7539 5.91329 63.1262 6.50656C62.7425 6.85555 62.4984 7.27433 62.3938 8.0072C62.2543 9.15884 63.1959 9.71722 63.1959 9.71722C62.5681 12.0554 61.5567 14.2191 60.1617 16.1734V15.5453C60.1617 12.544 60.1966 10.1709 60.1966 9.33334C60.2315 8.49577 60.2663 7.8676 60.2663 7.72801C60.2663 7.41392 60.0571 7.27433 59.6735 7.13473C59.3247 6.99514 58.9062 6.89045 58.4877 6.85555C57.9645 6.82065 57.6158 7.09984 57.6158 7.44882V7.9025C57.2322 7.27433 56.6393 6.82065 55.9766 6.57636C54.6862 6.19248 53.3609 6.54146 52.3495 7.9374C51.5125 9.19374 50.9894 10.6595 50.8499 12.1601C50.7104 13.556 50.7453 14.7426 50.9196 15.7895C50.7104 16.8016 50.1175 17.8486 49.4549 17.8486C48.6178 17.8486 48.1296 17.1157 48.1296 13.6607C48.1296 11.6715 48.1993 10.7991 48.2342 9.33334C48.2691 8.49577 48.304 7.8676 48.304 7.72801C48.304 7.27433 47.5367 7.06494 47.1531 6.96024C46.7694 6.85555 46.4555 6.85555 46.2114 6.85555C45.8975 6.89045 45.6534 7.16963 45.6534 7.37902V7.8676C45.2698 7.23943 44.6769 6.78575 44.0142 6.54146C42.7238 6.15758 41.3986 6.50656 40.3872 7.9025C39.7245 8.80986 39.1665 9.85681 38.8875 12.0903C38.8177 12.6836 38.7829 13.3118 38.7829 13.905C38.5039 15.5104 37.353 17.3949 36.3764 17.3949C35.8184 17.3949 35.2604 16.313 35.2604 14.0097C35.2604 10.9387 35.4697 6.54146 35.4697 6.12268L36.9345 6.08778C37.5273 6.08778 38.0854 6.08778 38.8875 6.05288C39.306 6.01798 39.6896 4.58715 39.2711 4.41265C39.0967 4.34286 37.7366 4.27306 37.2135 4.23816C36.7601 4.23816 35.5394 4.13347 35.5394 4.13347C35.5394 4.13347 35.644 1.202 35.6789 0.92281C35.7138 0.643622 35.365 0.538927 35.1558 0.434232C34.7024 0.259739 34.249 0.120146 33.7956 0.0503487C33.133 -0.0892451 32.8191 0.0503486 32.7494 0.608724C32.6447 1.48119 32.6099 4.02877 32.6099 4.02877C32.1216 4.02877 30.4127 3.92408 29.9244 3.92408C29.471 3.92408 28.9479 5.91329 29.6105 5.94819L32.4704 6.01798L32.4355 11.9507V12.3695C31.9821 14.8124 30.3429 16.1385 30.3429 16.1385C30.6917 14.5332 29.9593 13.3118 28.6689 12.2997C28.1806 11.9158 27.239 11.2179 26.1578 10.4152C26.1578 10.4152 26.7856 9.82191 27.3087 8.60047C27.6924 7.72801 27.7272 6.75085 26.7507 6.54146C25.1813 6.15758 23.8909 7.30923 23.5073 8.56557C23.1934 9.36823 23.3678 10.3105 23.9607 10.9387L24.1002 11.1132C23.7514 11.7762 23.2631 12.7185 22.8446 13.4165C21.6937 15.3708 20.8567 16.9412 20.1941 16.9412C19.6709 16.9412 19.6709 15.3708 19.6709 13.8701C19.6709 12.5789 19.7756 10.6595 19.8453 8.67027C19.8802 8.0072 19.5314 7.62331 18.9734 7.30923C18.52 6.99514 18.0318 6.78575 17.5086 6.68105C16.8809 6.68105 15.1022 6.78575 13.3933 11.6715C13.1841 12.2997 12.7655 13.4165 12.7655 13.4165L12.8004 7.55352C12.8004 7.41392 12.7307 7.27433 12.5563 7.20453C12.0332 6.92534 11.4403 6.75085 10.8474 6.71595C10.5335 6.71595 10.3591 6.85555 10.3591 7.16963L10.2894 16.3828C10.2894 17.0808 10.3242 17.8835 10.394 18.2673C10.4637 18.6163 10.5684 18.8955 10.7079 19.07C10.8474 19.2445 10.9869 19.3841 11.2659 19.419C11.51 19.4888 12.8702 19.6284 12.9399 19.1398C13.0445 18.5116 13.0445 17.8486 13.7421 15.3708C14.8232 11.5319 16.2531 9.61252 16.9506 8.94945C17.0553 8.80986 17.1948 8.80986 17.1948 9.01925L16.9855 13.7654C16.8111 18.5814 17.683 19.4539 18.9386 19.4539C19.8802 19.4539 21.2404 18.5116 22.7051 16.1036L25.1116 12.0903L26.5415 13.3816C27.6924 14.4634 28.076 15.4755 27.797 16.4526C27.6226 17.1855 26.8902 17.9882 25.5998 17.2204C25.2162 17.011 25.0767 16.8365 24.6931 16.5922C24.4838 16.4526 24.1699 16.4177 23.9955 16.5573C23.5073 16.9063 23.2283 17.3949 23.0888 17.9533C22.9493 18.5116 23.5073 18.7908 24.0653 19.0351C24.5536 19.2445 25.6347 19.4539 26.2973 19.4888C28.9479 19.5935 31.0404 18.2324 32.5052 14.7077C32.7842 17.7439 33.9003 19.4539 35.8184 19.4539C37.1088 19.4539 38.4341 17.7788 38.9921 16.1385C39.1665 16.8016 39.4106 17.3949 39.7245 17.8835C41.2242 20.2566 44.1189 19.7331 45.5836 17.709C46.037 17.0808 46.1068 16.8714 46.1068 16.8714C46.2114 18.2673 47.3274 19.3841 48.7225 19.4539C49.699 19.4539 50.7104 19.0002 51.4428 17.3949C51.5125 17.5694 51.6172 17.7439 51.7218 17.8835C53.2214 20.2566 56.1161 19.7331 57.5809 17.709L57.7553 17.4647L57.7902 18.721L56.4649 19.9425C54.198 22.0015 52.489 23.5719 52.3844 25.3866C52.21 27.7248 54.0933 28.5624 55.5232 28.702C56.988 28.7718 58.3482 28.0389 59.1503 26.8175C59.8478 25.8054 60.3012 23.5719 60.2663 21.3733L60.1966 18.1975C62.324 15.7198 63.9981 12.8581 65.0443 9.75212C65.0443 9.75212 65.8813 9.75212 66.7532 9.71722C67.0322 9.68232 67.1369 9.75212 67.0671 9.96151C66.9974 10.2058 65.9511 14.2889 66.9276 17.011C67.5903 18.8606 69.0899 19.4539 69.9618 19.4539C70.9732 19.4539 71.9846 18.6861 72.5077 17.4996L72.717 17.8835C74.2167 20.2566 77.1113 19.7331 78.5761 17.709C78.89 17.2553 79.0993 16.8714 79.0993 16.8714C79.4131 18.8257 80.9477 19.4539 81.8196 19.4539C82.7263 19.4539 83.5982 19.07 84.2957 17.4298C84.3306 18.1626 84.3655 18.7559 84.4353 18.9653C84.4701 19.07 84.7491 19.2445 84.9235 19.2794C85.7605 19.5935 86.5975 19.4539 86.9114 19.3841C87.1207 19.3492 87.2951 19.1747 87.3299 18.721C87.3997 17.5345 87.3648 15.5453 87.7136 14.0446C88.3065 11.5319 88.8645 10.5897 89.1435 10.1011C89.283 9.82192 89.4574 9.78702 89.4574 10.0662C89.4574 10.6246 89.4922 12.3346 89.7364 14.5681C89.9107 16.2432 90.1549 17.2204 90.3293 17.5345C90.8524 18.4418 91.4802 18.4767 91.9684 18.4767C92.2823 18.4767 92.9798 18.372 92.9101 17.8137C92.8752 17.5345 92.9449 15.8244 93.5378 13.3816C93.9215 11.7762 94.5492 10.3454 94.7934 9.78702C94.898 9.61252 94.9329 9.75212 94.9329 9.78702C94.8631 10.8689 94.7585 14.4983 95.2119 16.4526C95.8048 19.1049 97.5834 19.419 98.2112 19.419C99.5365 19.419 100.583 18.4069 100.966 15.7895C101.071 15.1963 100.931 14.7077 100.548 14.7077Z" fill="#F7F9F9"/>
</svg>
